<?xml version="1.0" encoding="UTF-8" standalone="no"?> <svg  viewBox="0 -65 512 512"  xmlns="http://www.w3.org/2000/svg"><path d="m423 200c-4.144531 0-7.5 3.359375-7.5 7.5v18c0 4.140625 3.355469 7.5 7.5 7.5s7.5-3.359375 7.5-7.5v-18c0-4.140625-3.355469-7.5-7.5-7.5zm0 0"/><path d="m423 287.667969c-4.144531 0-7.5 3.355469-7.5 7.5v18c0 4.140625 3.355469 7.5 7.5 7.5s7.5-3.359375 7.5-7.5v-18c0-4.144531-3.355469-7.5-7.5-7.5zm0 0"/><path d="m89 233c4.144531 0 7.5-3.359375 7.5-7.5v-18c0-4.140625-3.355469-7.5-7.5-7.5s-7.5 3.359375-7.5 7.5v18c0 4.140625 3.355469 7.5 7.5 7.5zm0 0"/><path d="m81.5 313.167969c0 4.140625 3.355469 7.5 7.5 7.5s7.5-3.359375 7.5-7.5v-18c0-4.144531-3.355469-7.5-7.5-7.5s-7.5 3.355469-7.5 7.5zm0 0"/><path d="m488.5 334h-8v-154.5c0-4.140625-3.355469-7.5-7.5-7.5h-17.5v-12h12.5c4.144531 0 7.5-3.359375 7.5-7.5 0-3.996094-3.125-7.261719-7.066406-7.488281-1.160156-21.414063-17.199219-38.941407-37.933594-42.394531v-13.046876c0-4.140624-3.355469-7.5-7.5-7.5s-7.5 3.359376-7.5 7.5v13.046876c-20.734375 3.453124-36.773438 20.980468-37.933594 42.394531-3.9375.226562-7.066406 3.492187-7.066406 7.488281 0 4.140625 3.355469 7.5 7.5 7.5h13v12h-18c-4.144531 0-7.5 3.359375-7.5 7.5v14.5h-27v-114.996094c1.832031-1.550781 3-3.867187 3-6.453125v-24.050781c0-11.449219-7.589844-21.164062-18-24.375v-16.625c0-4.140625-3.355469-7.5-7.5-7.5s-7.5 3.359375-7.5 7.5v16.625c-10.410156 3.210938-18 12.925781-18 24.375v24.054688c0 2.582031 1.167969 4.898437 3 6.449218v69.28125c-2.347656-.832031-4.871094-1.285156-7.5-1.285156-5.757812 0-11.015625 2.175781-15 5.746094-3.984375-3.570313-9.242188-5.746094-15-5.746094s-11.015625 2.175781-15 5.746094c-3.984375-3.570313-9.242188-5.746094-15-5.746094-2.628906 0-5.152344.453125-7.5 1.285156v-69.28125c1.832031-1.550781 3-3.867187 3-6.449218v-24.054688c0-11.449219-7.589844-21.164062-18-24.375v-16.625c0-4.140625-3.355469-7.5-7.5-7.5s-7.5 3.359375-7.5 7.5v16.625c-10.410156 3.210938-18 12.925781-18 24.375v24.054688c0 2.582031 1.167969 4.898437 3 6.449218v114.996094h-27v-14.5c0-4.140625-3.355469-7.5-7.5-7.5h-17.5v-12h12.5c4.144531 0 7.5-3.359375 7.5-7.5 0-3.996094-3.125-7.261719-7.066406-7.488281-1.160156-21.414063-17.199219-38.941407-37.933594-42.394531v-13.046876c0-4.140624-3.355469-7.5-7.5-7.5s-7.5 3.359376-7.5 7.5v13.046876c-20.734375 3.453124-36.773438 20.980468-37.933594 42.394531-3.9375.226562-7.066406 3.492187-7.066406 7.488281 0 4.140625 3.355469 7.5 7.5 7.5h13v12h-18c-4.144531 0-7.5 3.359375-7.5 7.5v42c0 4.140625 3.355469 7.5 7.5 7.5s7.5-3.359375 7.5-7.5v-34.5h85v147h-85v-79.5c0-4.140625-3.355469-7.5-7.5-7.5s-7.5 3.359375-7.5 7.5v79.5h-8c-12.957031 0-23.5 10.542969-23.5 23.5s10.542969 23.5 23.5 23.5h424.75c4.144531 0 7.5-3.359375 7.5-7.5s-3.355469-7.5-7.5-7.5h-424.75c-4.6875 0-8.5-3.8125-8.5-8.5s3.8125-8.5 8.5-8.5h465c4.6875 0 8.5 3.8125 8.5 8.5s-3.8125 8.5-8.5 8.5h-8.75c-4.144531 0-7.5 3.359375-7.5 7.5s3.355469 7.5 7.5 7.5h8.75c12.957031 0 23.5-10.542969 23.5-23.5s-10.542969-23.5-23.5-23.5zm-399.5-217c15.976562 0 29.121094 12.347656 30.398438 28h-60.796876c1.277344-15.652344 14.421876-28 30.398438-28zm-17 43h34.5v12h-34.5zm351-43c15.976562 0 29.121094 12.347656 30.398438 28h-60.796876c1.277344-15.652344 14.421876-28 30.398438-28zm-17 43h34.5v12h-34.5zm-97.5-79h15v113h-15zm-3-32.5c0-5.789062 4.710938-10.5 10.5-10.5s10.5 4.710938 10.5 10.5v17.5h-21zm-19.5 113.5c4.136719 0 7.5 3.363281 7.5 7.5v24.5h-15v-24.5c0-4.136719 3.363281-7.5 7.5-7.5zm-30 0c4.136719 0 7.5 3.363281 7.5 7.5v24.5h-15v-24.5c0-4.136719 3.363281-7.5 7.5-7.5zm-30 0c4.136719 0 7.5 3.363281 7.5 7.5v24.5h-15v-24.5c0-4.136719 3.363281-7.5 7.5-7.5zm-40.5-113.5c0-5.789062 4.710938-10.5 10.5-10.5s10.5 4.710938 10.5 10.5v17.5h-21zm3 32.5h15v113h-15zm177 128v15h-219v-15zm-189 125v-67h111.25c4.144531 0 7.5-3.359375 7.5-7.5s-3.355469-7.5-7.5-7.5h-118.75c-4.144531 0-7.5 3.359375-7.5 7.5v74.5h-15v-95h219v95h-15v-74.5c0-4.140625-3.355469-7.5-7.5-7.5h-23c-4.144531 0-7.5 3.359375-7.5 7.5s3.355469 7.5 7.5 7.5h15.5v67zm204 0v-147h85v147zm0 0"/></svg>